<svg xmlns="http://www.w3.org/2000/svg" version="1.1" xmlns:xlink="http://www.w3.org/1999/xlink" xmlns:svgjs="http://svgjs.dev/svgjs" width="308.7612359841165"
   height="304.915625" viewBox="0 0 2000 1709"><g transform="matrix(1,0,0,1,-0.6957508498757079,0.6931805154796393)"><svg viewBox="0 0 289 247" data-background-color="#ffffff" preserveAspectRatio="xMidYMid meet" height="1709" width="2000" xmlns="http://www.w3.org/2000/svg" xmlns:xlink="http://www.w3.org/1999/xlink"><g id="tight-bounds" transform="matrix(1,0,0,1,0.10053599780704303,-0.09997365579206985)"><svg viewBox="0 0 288.79875965811965 247.2" height="247.2" width="288.79875965811965"><g><svg viewBox="0 0 288.79875965811965 247.2" height="247.2" width="288.79875965811965"><g><svg viewBox="0 0 288.79875965811965 247.2" height="247.2" width="288.79875965811965"><g id="textblocktransform"><svg viewBox="0 0 288.79875965811965 247.2" height="247.2" width="288.79875965811965" id="textblock"><g><svg viewBox="0 0 288.79875965811965 247.2" height="247.2" width="288.79875965811965"><path d="M288.123 53.02C286.765 27.36 282.895 20.227 282.895 20.227 271.016-6.202 256.189-0.506 242.87 3.292 219.355 3.446 195.934 9.091 172.473 12.119 123.229 12.581 73.565 4.986 24.565 23.717 19.962 29.464-4.775 24.846 0.819 56.304 2.285 69.39 7.634 83.913 7.471 95.922 8.205 98.026 9.223 93.202 9.657 96.23 11.178 104.39 13.663 100.541 15.699 105.365 12.862 118.246 14.898 128.971 16.84 140.21 13.418 143.135 9.033 141.749 7.064 151.449 6.86 158.479 5.761 157.145 4.552 156.837 3.67 156.632 1.891 157.402 2.19 159.608 3.208 167.152-1.164 171.514 1.579 178.904-0.308 186.91 2.882 193.838 2.448 202.511 2.394 204.255 2.692 205.744 3.168 206.154 5.272 208.361 2.204 212.672 2.529 217.342 24.117 249.262 47.537 227.195 69.654 241.872 75.397 231.608 71.08 245.516 73.374 243.36 75.167 240.846 76.47 251.263 78.493 245.362 78.805 243.668 78.33 239.665 79.443 240.435 80.027 240.846 80.543 240.743 80.625 238.382 80.747 234.841 79.674 237.048 79.389 235.201 82.471 225.861 81.711 248.081 84.603 247.158 84.467 244.438 83.625 240.538 85.349 241.051 87.06 237.151 87.114 233.918 88.635 242.693 88.689 244.592 88.961 245.926 89.395 246.85 94.147 237.305 98.872 250.237 103.855 245.926 106.91 241.205 109.842 248.492 112.938 246.696 114.024 245.259 115.124 242.693 116.169 247.004 128.972 247.928 142.617 244.079 154.755 247.158 187.191 241.41 221.853 249.518 256.054 241.923 264.118 238.998 272.495 234.841 280.357 231.506 280.357 231.506 286.724 222.371 286.724 181.316S288.082 145.393 288.286 112.703C288.489 80.013 289.44 78.679 288.082 53.02Z" opacity="1" fill="#ed1703" data-fill-palette-color="tertiary"></path><g transform="matrix(1,0,0,1,55.76832,26.230666666666668)"><svg width="177.26211965811964" viewBox="2.25 -36.90999984741211 34.65999984741211 38.08000183105469" height="194.73866666666666" data-palette-color="#5e1914"><path d="M36.91-0.15L36.91-0.15Q36.67 0.1 36.38 0.15 36.08 0.2 35.79 0.2L35.79 0.2Q35.06 0.54 34.23 0.54L34.23 0.54Q33.69 0.24 33.64 0.34 33.59 0.44 33.45 0.54L33.45 0.54Q32.71 0.88 32.13 0.9 31.54 0.93 31.15 1.17L31.15 1.17Q30.76 0.88 30.74 0.32 30.71-0.24 30.62-0.63L30.62-0.63Q30.37-0.98 30.27-1.49 30.18-2 30.13-2.54 30.08-3.08 30-3.59 29.93-4.1 29.74-4.49L29.74-4.49Q29.69-4.74 29.71-4.93 29.74-5.13 29.64-5.37L29.64-5.37Q29.69-6.2 29.59-6.69 29.49-7.18 29.39-7.71L29.39-7.71Q29.35-8.01 29.35-8.37 29.35-8.74 29.05-8.94L29.05-8.94Q29.2-9.62 29.1-9.96 29-10.3 28.96-10.6L28.96-10.6Q28.91-10.99 28.91-11.45 28.91-11.91 28.81-12.3L28.81-12.3Q28.52-14.65 28.17-16.99 27.83-19.34 27.54-21.68L27.54-21.68Q27.25-21.44 27.12-20.95 27-20.46 26.9-20.07L26.9-20.07Q26.61-19.19 26.37-18.26 26.12-17.33 25.88-16.46L25.88-16.46Q25.78-16.06 25.71-15.55 25.63-15.04 25.49-14.65L25.49-14.65Q25-13.23 24.63-12.21 24.27-11.18 23.93-10.11L23.93-10.11Q23.83-9.52 23.73-8.98 23.63-8.45 23.54-7.91L23.54-7.91Q23.49-7.62 23.39-7.08 23.29-6.54 23.19-6.3L23.19-6.3Q23.1-6.05 23.02-5.96 22.95-5.86 23-5.62L23-5.62Q22.51-4.88 22.34-4 22.17-3.13 21.73-2.29L21.73-2.29Q21.73-1.71 21.29-1.27L21.29-1.27Q21.04-1.22 20.83-1.17 20.61-1.12 20.36-0.98L20.36-0.98Q20.12-1.07 19.8-1.1 19.48-1.12 19.19-1.12L19.19-1.12Q18.95-1.17 18.75-1.29 18.55-1.42 18.31-1.46L18.31-1.46Q18.07-1.76 17.77-1.98 17.48-2.2 17.19-2.44L17.19-2.44Q16.89-3.17 16.65-3.42L16.65-3.42Q16.5-3.96 16.26-4.42 16.02-4.88 15.92-5.47L15.92-5.47Q15.77-6.01 15.55-6.47 15.33-6.93 15.09-7.47L15.09-7.47Q14.99-7.81 14.87-8.13 14.75-8.45 14.6-8.79L14.6-8.79Q14.55-9.18 14.33-9.77 14.11-10.35 14.01-10.79L14.01-10.79Q14.01-10.84 13.84-11.3 13.67-11.77 13.5-12.3 13.33-12.84 13.16-13.28 12.99-13.72 12.94-13.77L12.94-13.77Q12.84-14.01 12.77-14.23 12.7-14.45 12.6-14.75L12.6-14.75Q12.4-15.38 12.11-16.04 11.82-16.7 11.52-17.29L11.52-17.29Q11.28-17.77 11.18-18.24 11.08-18.7 10.94-19.14L10.94-19.14Q10.84-19.38 10.77-19.58 10.69-19.78 10.6-20.02L10.6-20.02Q10.5-20.31 10.4-20.63 10.3-20.95 10.21-21.29L10.21-21.29Q9.96-21.19 9.99-20.87 10.01-20.56 9.96-20.31L9.96-20.31Q9.86-19.78 9.86-19.26 9.86-18.75 9.81-18.21L9.81-18.21Q9.72-17.63 9.62-17.09 9.52-16.55 9.47-16.02L9.47-16.02Q9.47-14.7 9.33-13.38L9.33-13.38Q9.23-12.21 9.08-11.01 8.94-9.81 8.89-8.54L8.89-8.54Q8.89-7.62 8.69-6.71 8.5-5.81 8.59-4.83L8.59-4.83Q8.5-4.64 8.5-4.54 8.5-4.44 8.5-4.25L8.5-4.25Q8.5-4 8.47-3.71 8.45-3.42 8.45-3.17L8.45-3.17Q8.45-2.73 8.54-2.59L8.54-2.59Q8.4-2.15 8.4-1.64 8.4-1.12 8.4-0.63L8.4-0.63Q8.3-0.44 8.28-0.24 8.25-0.05 8.11 0.15L8.11 0.15Q8.15 0.98 7.62 0.98L7.62 0.98Q7.47 0.98 7.3 0.9 7.13 0.83 7.03 0.68L7.03 0.68Q6.49 0.73 6.42 0.44 6.35 0.15 6.1 0.2L6.1 0.2Q5.52 0.44 5.44 0.34 5.37 0.24 5.13 0.29L5.13 0.29Q4.74-0.1 4.61-0.05 4.49 0 4.39 0L4.39 0Q3.96-0.15 3.91-0.07 3.86 0 3.71 0L3.71 0Q3.47-0.24 3.05-0.24 2.64-0.24 2.34-0.29L2.34-0.29Q2.29-0.49 2.27-0.66 2.25-0.83 2.25-1.07L2.25-1.07Q2.25-1.37 2.27-1.64 2.29-1.9 2.29-2.2L2.29-2.2Q2.29-2.44 2.27-2.71 2.25-2.98 2.25-3.32L2.25-3.32Q2.25-3.66 2.29-3.98 2.34-4.3 2.34-4.69L2.34-4.69Q2.34-4.83 2.29-4.96 2.25-5.08 2.25-5.27L2.25-5.27Q2.54-5.91 2.51-6.27 2.49-6.64 2.54-6.98L2.54-6.98Q2.64-7.81 2.71-8.62 2.78-9.42 2.88-10.25L2.88-10.25Q2.88-11.62 2.95-12.52 3.03-13.43 3.17-14.36L3.17-14.36Q3.27-14.79 3.34-15.19 3.42-15.58 3.52-16.02L3.52-16.02Q3.61-16.75 3.64-17.55 3.66-18.36 3.76-19.14L3.76-19.14Q3.86-20.36 4-21.56 4.15-22.75 4.25-23.93L4.25-23.93Q4.35-24.85 4.47-25.76 4.59-26.66 4.59-27.49L4.59-27.49Q4.59-27.93 4.71-28.61 4.83-29.3 4.88-29.79L4.88-29.79Q4.98-30.96 5.05-32.08 5.13-33.2 5.13-34.33L5.13-34.33 5.13-34.86Q5.13-34.96 5.22-35.06 5.32-35.16 5.32-35.4L5.32-35.4Q5.32-35.84 5.54-36.01 5.76-36.18 5.91-36.57L5.91-36.57Q6.15-36.57 6.47-36.52 6.79-36.47 6.93-36.23L6.93-36.23Q7.28-36.33 7.62-36.33 7.96-36.33 8.2-36.57L8.2-36.57Q8.5-36.57 8.64-36.43 8.79-36.28 9.03-36.18L9.03-36.18Q9.23-36.28 9.42-36.35 9.62-36.43 9.81-36.52L9.81-36.52Q9.96-36.43 10.03-36.3 10.11-36.18 10.25-36.13L10.25-36.13Q10.99-36.33 11.23-36.18L11.23-36.18Q11.33-35.99 11.35-35.79 11.38-35.6 11.43-35.4L11.43-35.4Q11.91-34.91 12.06-34.3 12.21-33.69 12.6-33.2L12.6-33.2Q12.7-32.91 12.82-32.62 12.94-32.32 13.04-31.93L13.04-31.93 13.18-31.35Q13.38-30.86 13.67-30.18L13.67-30.18Q13.92-29.25 14.11-28.27 14.31-27.29 14.75-26.46L14.75-26.46Q14.79-26.17 14.92-25.76 15.04-25.34 15.14-25.05L15.14-25.05Q15.48-24.22 15.84-23.41 16.21-22.61 16.5-21.68L16.5-21.68Q16.8-20.75 17.02-19.78 17.24-18.8 17.58-17.87L17.58-17.87Q17.87-16.99 18.02-16.6 18.16-16.21 18.41-15.82L18.41-15.82Q18.41-15.67 18.48-15.33 18.55-14.99 18.7-14.62 18.85-14.26 18.99-13.94 19.14-13.62 19.29-13.57L19.29-13.57Q19.43-13.67 19.46-13.87 19.48-14.06 19.63-14.21L19.63-14.21Q19.68-14.75 19.8-15.53 19.92-16.31 20.17-16.8L20.17-16.8Q20.17-17.04 20.29-17.7 20.41-18.36 20.61-19.12 20.8-19.87 20.97-20.51 21.14-21.14 21.29-21.29L21.29-21.29Q21.39-21.92 21.46-22.07 21.53-22.22 21.63-22.31L21.63-22.31Q21.68-22.71 21.83-23.05 21.97-23.39 22.02-23.78L22.02-23.78Q22.12-24.61 22.27-25.15 22.41-25.68 22.66-26.46L22.66-26.46Q22.85-27.15 23.02-27.86 23.19-28.56 23.44-29.25L23.44-29.25Q24.02-31.1 24.49-32.54 24.95-33.98 25.63-35.35L25.63-35.35Q25.78-35.79 25.88-35.89 25.98-35.99 26.07-36.08L26.07-36.08Q26.46-36.23 26.88-36.23 27.29-36.23 27.73-36.18L27.73-36.18Q28.22-36.38 28.47-36.62L28.47-36.62Q28.66-36.38 29.05-36.38L29.05-36.38Q29.54-36.38 29.74-36.67L29.74-36.67Q29.93-36.57 30.05-36.62 30.18-36.67 30.42-36.57L30.42-36.57Q30.52-36.67 30.66-36.79 30.81-36.91 30.96-36.91L30.96-36.91Q31.35-36.43 31.57-36.16 31.79-35.89 31.88-35.55L31.88-35.55Q32.03-35.11 32.06-34.59 32.08-34.08 32.32-33.64L32.32-33.64Q32.28-33.01 32.4-31.71 32.52-30.42 32.69-28.98 32.86-27.54 33.06-26.32 33.25-25.1 33.4-24.8L33.4-24.8Q33.35-24.17 33.45-23.73 33.54-23.29 33.54-22.85L33.54-22.85Q33.54-22.71 33.59-22.24 33.64-21.78 33.69-21.26 33.74-20.75 33.81-20.29 33.89-19.82 33.94-19.63L33.94-19.63Q33.94-18.75 34.23-18.26L34.23-18.26Q34.47-17.04 34.64-15.82 34.81-14.6 34.96-13.33L34.96-13.33Q35.06-12.7 35.08-12.11 35.11-11.52 35.21-10.89L35.21-10.89Q35.25-10.64 35.33-10.4 35.4-10.16 35.45-9.91L35.45-9.91Q35.55-9.42 35.6-8.98 35.64-8.54 35.74-8.11L35.74-8.11Q35.79-7.86 35.89-7.59 35.99-7.32 35.89-7.03L35.89-7.03Q35.99-6.69 35.96-6.3 35.94-5.91 36.13-5.62L36.13-5.62Q36.13-4.59 36.28-3.81L36.28-3.81Q36.33-3.22 36.57-2.64L36.57-2.64Q36.67-2.05 36.74-1.42 36.82-0.78 36.91-0.15Z" opacity="1" transform="matrix(1,0,0,1,0,0)" fill="#5e1914" class="wordmark-text-0" data-fill-palette-color="quaternary" id="text-0"></path></svg></g></svg></g></svg></g></svg></g><g></g></svg></g><defs></defs></svg><rect width="288.79875965811965" height="247.2" fill="none" stroke="none" visibility="hidden"></rect></g></svg></g></svg>